<svg id="account_circle-24px" xmlns="http://www.w3.org/2000/svg" width="208" height="208" viewBox="0 0 208 208">
  <path id="Caminho_200" data-name="Caminho 200" d="M0,0H208V208H0Z" fill="none"/>
  <path id="Caminho_201" data-name="Caminho 201" d="M88.667,2a86.667,86.667,0,1,0,86.667,86.667A86.7,86.7,0,0,0,88.667,2Zm0,26a26,26,0,1,1-26,26A25.965,25.965,0,0,1,88.667,28Zm0,123.067a62.4,62.4,0,0,1-52-27.907c.26-17.247,34.667-26.693,52-26.693,17.247,0,51.74,9.447,52,26.693A62.4,62.4,0,0,1,88.667,151.067Z" transform="translate(15.333 15.333)" fill="#364F6B"/>
</svg>
